<svg xmlns="http://www.w3.org/2000/svg" viewBox="0 0 240 40" fill="none">
  <g stroke="#C6A15B" stroke-width="1.15" stroke-linecap="round">
    <line x1="31" y1="20" x2="38" y2="20"/>
    <line x1="40.5" y1="20" x2="42" y2="20"/>
    <line x1="28.95" y1="24.95" x2="33.9" y2="29.9"/>
    <line x1="35.66" y1="31.66" x2="36.73" y2="32.73"/>
    <line x1="24" y1="27" x2="24" y2="34"/>
    <line x1="24" y1="36.5" x2="24" y2="38"/>
    <line x1="19.05" y1="24.95" x2="14.1" y2="29.9"/>
    <line x1="12.34" y1="31.66" x2="11.27" y2="32.73"/>
    <line x1="17" y1="20" x2="10" y2="20"/>
    <line x1="7.5" y1="20" x2="6" y2="20"/>
    <line x1="19.05" y1="15.05" x2="14.1" y2="10.1"/>
    <line x1="12.34" y1="8.34" x2="11.27" y2="7.27"/>
    <line x1="24" y1="13" x2="24" y2="6"/>
    <line x1="24" y1="3.5" x2="24" y2="2"/>
    <line x1="28.95" y1="15.05" x2="33.9" y2="10.1"/>
    <line x1="35.66" y1="8.34" x2="36.73" y2="7.27"/>
  </g>
  <text
    x="56"
    y="28"
    fill="#C6A15B"
    font-family="Magistral, system-ui, sans-serif"
    font-size="20"
    font-weight="400"
    letter-spacing="0.18em"
  >ЛЮМЕН АРТ</text>
</svg>
