<svg xmlns="http://www.w3.org/2000/svg" viewBox="0 0 48 48" fill="none">
  <g stroke="#C6A15B" stroke-width="1.15" stroke-linecap="round">
    <line x1="31" y1="24" x2="38" y2="24"/>
    <line x1="40.5" y1="24" x2="42" y2="24"/>
    <line x1="28.95" y1="28.95" x2="33.9" y2="33.9"/>
    <line x1="35.66" y1="35.66" x2="36.73" y2="36.73"/>
    <line x1="24" y1="31" x2="24" y2="38"/>
    <line x1="24" y1="40.5" x2="24" y2="42"/>
    <line x1="19.05" y1="28.95" x2="14.1" y2="33.9"/>
    <line x1="12.34" y1="35.66" x2="11.27" y2="36.73"/>
    <line x1="17" y1="24" x2="10" y2="24"/>
    <line x1="7.5" y1="24" x2="6" y2="24"/>
    <line x1="19.05" y1="19.05" x2="14.1" y2="14.1"/>
    <line x1="12.34" y1="12.34" x2="11.27" y2="11.27"/>
    <line x1="24" y1="17" x2="24" y2="10"/>
    <line x1="24" y1="7.5" x2="24" y2="6"/>
    <line x1="28.95" y1="19.05" x2="33.9" y2="14.1"/>
    <line x1="35.66" y1="12.34" x2="36.73" y2="11.27"/>
  </g>
</svg>
