<svg xmlns="http://www.w3.org/2000/svg" width="1200" height="630" viewBox="0 0 1200 630">
  <defs>
    <radialGradient id="heroGlow" cx="50%" cy="38%" r="55%">
      <stop offset="0%" stop-color="#C6A15B" stop-opacity="0.22"/>
      <stop offset="55%" stop-color="#C6A15B" stop-opacity="0.06"/>
      <stop offset="100%" stop-color="#1A1A1A" stop-opacity="0"/>
    </radialGradient>
  </defs>
  <rect width="1200" height="630" fill="#1A1A1A"/>
  <ellipse cx="600" cy="220" rx="420" ry="280" fill="url(#heroGlow)"/>

  <g transform="translate(600, 200)">
    <g stroke="#C6A15B" stroke-width="2" stroke-linecap="round">
      <line x1="17.5" y1="0" x2="35" y2="0"/>
      <line x1="41.25" y1="0" x2="45" y2="0"/>
      <line x1="12.37" y1="12.37" x2="24.75" y2="24.75"/>
      <line x1="29.16" y1="29.16" x2="31.82" y2="31.82"/>
      <line x1="0" y1="17.5" x2="0" y2="35"/>
      <line x1="0" y1="41.25" x2="0" y2="45"/>
      <line x1="-12.37" y1="12.37" x2="-24.75" y2="24.75"/>
      <line x1="-29.16" y1="29.16" x2="-31.82" y2="31.82"/>
      <line x1="-17.5" y1="0" x2="-35" y2="0"/>
      <line x1="-41.25" y1="0" x2="-45" y2="0"/>
      <line x1="-12.37" y1="-12.37" x2="-24.75" y2="-24.75"/>
      <line x1="-29.16" y1="-29.16" x2="-31.82" y2="-31.82"/>
      <line x1="0" y1="-17.5" x2="0" y2="-35"/>
      <line x1="0" y1="-41.25" x2="0" y2="-45"/>
      <line x1="12.37" y1="-12.37" x2="24.75" y2="-24.75"/>
      <line x1="29.16" y1="-29.16" x2="31.82" y2="-31.82"/>
    </g>
  </g>

  <text
    x="600"
    y="340"
    text-anchor="middle"
    fill="#C6A15B"
    font-family="Magistral, system-ui, sans-serif"
    font-size="52"
    font-weight="400"
    letter-spacing="0.22em"
  >ЛЮМЕН АРТ</text>

  <text
    x="600"
    y="410"
    text-anchor="middle"
    fill="#B0B0B0"
    font-family="Magistral, system-ui, sans-serif"
    font-size="26"
    font-weight="400"
    letter-spacing="0.06em"
  >Индивидуальный дизайнерский свет</text>
</svg>
